<?xml version="1.0" encoding="UTF-8" standalone="no"?>
<svg
   xmlns:dc="http://purl.org/dc/elements/1.1/"
   xmlns:cc="http://creativecommons.org/ns#"
   xmlns:rdf="http://www.w3.org/1999/02/22-rdf-syntax-ns#"
   xmlns:svg="http://www.w3.org/2000/svg"
   xmlns="http://www.w3.org/2000/svg"
   xmlns:sodipodi="http://sodipodi.sourceforge.net/DTD/sodipodi-0.dtd"
   xmlns:inkscape="http://www.inkscape.org/namespaces/inkscape"
   width="30cm"
   height="16cm"
   viewBox="391 -134 584 316"
   id="svg3680"
   version="1.1"
   inkscape:version="0.48.4 r9939"
   sodipodi:docname="state3.svg">
  <metadata
     id="metadata3854">
    <rdf:RDF>
      <cc:Work
         rdf:about="">
        <dc:format>image/svg+xml</dc:format>
        <dc:type
           rdf:resource="http://purl.org/dc/dcmitype/StillImage" />
      </cc:Work>
    </rdf:RDF>
  </metadata>
  <defs
     id="defs3852" />
  <sodipodi:namedview
     pagecolor="#ffffff"
     bordercolor="#666666"
     borderopacity="1"
     objecttolerance="10"
     gridtolerance="10"
     guidetolerance="10"
     inkscape:pageopacity="0"
     inkscape:pageshadow="2"
     inkscape:window-width="1855"
     inkscape:window-height="1056"
     id="namedview3850"
     showgrid="false"
     inkscape:zoom="1.0987852"
     inkscape:cx="677.7884"
     inkscape:cy="165.10753"
     inkscape:window-x="65"
     inkscape:window-y="24"
     inkscape:window-maximized="1"
     inkscape:current-layer="svg3680" />
  <g
     id="g3682">
    <rect
       style="fill: #c4c4c4"
       x="541"
       y="-23.5"
       width="373"
       height="105"
       id="rect3684" />
    <rect
       style="fill: none; fill-opacity:0; stroke-width: 2; stroke: #000000"
       x="541"
       y="-23.5"
       width="373"
       height="105"
       id="rect3686" />
  </g>
  <g
     id="g3688"
     transform="matrix(1.1076153,0,0,1,-67.151928,0)">
    <rect
       style="fill:#ffffff"
       x="526"
       y="-132"
       width="98"
       height="36"
       rx="10"
       ry="10"
       id="rect3690" />
    <rect
       style="fill:none;stroke:#000000;stroke-width:2"
       x="526"
       y="-132"
       width="98"
       height="36"
       rx="10"
       ry="10"
       id="rect3692" />
    <text
       font-size="12.8"
       style="font-size:12.80000019px;font-style:normal;font-weight:normal;text-anchor:middle;fill:#000000;font-family:sans-serif"
       x="575"
       y="-110.1"
       id="text3694">
      <tspan
         x="575"
         y="-110.1"
         id="tspan3696">Initialization</tspan>
    </text>
  </g>
  <g
     id="g3698">
    <rect
       style="fill: #ffffff"
       x="679.8"
       y="-83.9"
       width="84.55"
       height="36"
       rx="10"
       ry="10"
       id="rect3700" />
    <rect
       style="fill: none; fill-opacity:0; stroke-width: 2; stroke: #000000"
       x="679.8"
       y="-83.9"
       width="84.55"
       height="36"
       rx="10"
       ry="10"
       id="rect3702" />
    <text
       font-size="12.8"
       style="fill: #000000;text-anchor:middle;font-family:sans-serif;font-style:normal;font-weight:normal"
       x="722.075"
       y="-62"
       id="text3704">
      <tspan
         x="722.075"
         y="-62"
         id="tspan3706">Read Wait</tspan>
    </text>
  </g>
  <g
     id="g3708"
     transform="matrix(1.1243012,0,0,1,-76.601371,0)">
    <rect
       style="fill:#ffffff"
       x="571.79999"
       y="18.1"
       width="101.05"
       height="36"
       rx="10"
       ry="10"
       id="rect3710" />
    <rect
       style="fill:none;stroke:#000000;stroke-width:2"
       x="571.79999"
       y="18.1"
       width="101.05"
       height="36"
       rx="10"
       ry="10"
       id="rect3712" />
    <text
       font-size="12.8"
       style="font-size:12.80000019px;font-style:normal;font-weight:normal;text-anchor:middle;fill:#000000;font-family:sans-serif"
       x="622.32501"
       y="40"
       id="text3714">
      <tspan
         x="622.32501"
         y="40"
         id="tspan3716">Read Critical</tspan>
    </text>
  </g>
  <g
     id="g3718"
     transform="matrix(1.0814273,0,0,1,-50.550065,0)">
    <rect
       style="fill:#ffffff"
       x="620.79999"
       y="115.1"
       width="80"
       height="36"
       rx="10"
       ry="10"
       id="rect3720" />
    <rect
       style="fill:none;stroke:#000000;stroke-width:2"
       x="620.79999"
       y="115.1"
       width="80"
       height="36"
       rx="10"
       ry="10"
       id="rect3722" />
    <text
       font-size="12.8"
       style="font-size:12.80000019px;font-style:normal;font-weight:normal;text-anchor:middle;fill:#000000;font-family:sans-serif"
       x="660.79999"
       y="137"
       id="text3724">
      <tspan
         x="660.79999"
         y="137"
         id="tspan3726">Execute</tspan>
    </text>
  </g>
  <g
     id="g3728"
     transform="matrix(1.1126443,0,0,1,-91.715274,0)">
    <rect
       style="fill:#ffffff"
       x="769.59998"
       y="18.200001"
       width="102.6"
       height="36"
       rx="10"
       ry="10"
       id="rect3730" />
    <rect
       style="fill:none;stroke:#000000;stroke-width:2"
       x="769.59998"
       y="18.200001"
       width="102.6"
       height="36"
       rx="10"
       ry="10"
       id="rect3732" />
    <text
       font-size="12.8"
       style="font-size:12.80000019px;font-style:normal;font-weight:normal;text-anchor:middle;fill:#000000;font-family:sans-serif"
       x="820.90002"
       y="40.099998"
       id="text3734">
      <tspan
         x="820.90002"
         y="40.099998"
         id="tspan3736">Write Critical</tspan>
    </text>
  </g>
  <g
     id="g3738"
     transform="matrix(1.0465988,0,0,1,-35.265958,0)">
    <rect
       style="fill:#ffffff"
       x="756.79999"
       y="113.1"
       width="86.099998"
       height="36"
       rx="10"
       ry="10"
       id="rect3740" />
    <rect
       style="fill:none;stroke:#000000;stroke-width:2"
       x="756.79999"
       y="113.1"
       width="86.099998"
       height="36"
       rx="10"
       ry="10"
       id="rect3742" />
    <text
       font-size="12.8"
       style="font-size:12.80000019px;font-style:normal;font-weight:normal;text-anchor:middle;fill:#000000;font-family:sans-serif"
       x="799.84998"
       y="135"
       id="text3744">
      <tspan
         x="799.84998"
         y="135"
         id="tspan3746">Write Wait</tspan>
    </text>
  </g>
  <g
     id="g3748">
    <rect
       style="fill: #ffffff"
       x="392.8"
       y="15.1"
       width="80"
       height="36"
       rx="10"
       ry="10"
       id="rect3750" />
    <rect
       style="fill: none; fill-opacity:0; stroke-width: 2; stroke: #000000"
       x="392.8"
       y="15.1"
       width="80"
       height="36"
       rx="10"
       ry="10"
       id="rect3752" />
    <text
       font-size="12.8"
       style="fill: #000000;text-anchor:middle;font-family:sans-serif;font-style:normal;font-weight:normal"
       x="432.8"
       y="37"
       id="text3754">
      <tspan
         x="432.8"
         y="37"
         id="tspan3756">Exit</tspan>
    </text>
  </g>
  <g
     id="g3758">
    <path
       style="fill: none; fill-opacity:0; stroke-width: 2; stroke: #000000"
       d="M 714.326,-89.7642 A 136.345,136.345 0 0 0 624,-114"
       id="path3760" />
    <polygon
       style="fill: #000000"
       points="720.341,-85.3121 709.43,-87.7503 714.526,-90.0484 715.745,-95.504 "
       id="polygon3762" />
    <polygon
       style="fill: none; fill-opacity:0; stroke-width: 2; stroke: #000000"
       points="720.341,-85.3121 709.43,-87.7503 714.526,-90.0484 715.745,-95.504 "
       id="polygon3764" />
  </g>
  <g
     id="g3766"
     transform="matrix(0.94891415,0,0,1,24.1892,0)">
    <path
       style="fill:none;stroke:#000000;stroke-width:2"
       d="M 571.8,36.1 A 73.716,73.716 0 0 0 480.555,27.3179"
       id="path3768"
       inkscape:connector-curvature="0" />
    <polygon
       style="fill:#000000"
       points="478.863,21.3544 480.207,26.7807 485.354,28.9617 474.501,31.6487 "
       id="polygon3770" />
    <polygon
       style="fill:none;stroke:#000000;stroke-width:2"
       points="478.863,21.3544 480.207,26.7807 485.354,28.9617 474.501,31.6487 "
       id="polygon3772" />
  </g>
  <g
     id="g3774">
    <path
       style="fill: none; fill-opacity:0; stroke-width: 2; stroke: #000000"
       d="M 679.8,-65.9 A 80.6989,80.6989 0 0 0 622.109,8.41898"
       id="path3776" />
    <polygon
       style="fill: #000000"
       points="622.141,15.8715 616.336,6.31634 621.525,8.39688 626.302,5.49434 "
       id="polygon3778" />
    <polygon
       style="fill: none; fill-opacity:0; stroke-width: 2; stroke: #000000"
       points="622.141,15.8715 616.336,6.31634 621.525,8.39688 626.302,5.49434 "
       id="polygon3780" />
  </g>
  <g
     id="g3782">
    <path
       style="fill: none; fill-opacity:0; stroke-width: 2; stroke: #000000"
       d="M 571.8,54.1 A 60.9542,60.9542 0 0 0 611.404,130.924"
       id="path3784" />
    <polygon
       style="fill: #000000"
       points="618.588,132.769 607.959,136.236 611.171,131.661 609.437,126.346 "
       id="polygon3786" />
    <polygon
       style="fill: none; fill-opacity:0; stroke-width: 2; stroke: #000000"
       points="618.588,132.769 607.959,136.236 611.171,131.661 609.437,126.346 "
       id="polygon3788" />
  </g>
  <g
     id="g3790">
    <path
       style="fill: none; fill-opacity:0; stroke-width: 2; stroke: #000000"
       d="M 700.8,151.1 A 40.4031,40.4031 0 0 0 749.411,155.121"
       id="path3792" />
    <polygon
       style="fill: #000000"
       points="755.245,150.707 751.886,161.371 750.031,156.098 744.699,154.418 "
       id="polygon3794" />
    <polygon
       style="fill: none; fill-opacity:0; stroke-width: 2; stroke: #000000"
       points="755.245,150.707 751.886,161.371 750.031,156.098 744.699,154.418 "
       id="polygon3796" />
  </g>
  <g
     id="g3798">
    <path
       style="fill: none; fill-opacity:0; stroke-width: 2; stroke: #000000"
       d="M 846,132.5 A 52.4167,52.4167 0 0 0 876.743,62.6718"
       id="path3800" />
    <polygon
       style="fill: #000000"
       points="873.433,56.0655 883.118,61.6512 877.568,62.3224 874.775,67.1649 "
       id="polygon3802" />
    <polygon
       style="fill: none; fill-opacity:0; stroke-width: 2; stroke: #000000"
       points="873.433,56.0655 883.118,61.6512 877.568,62.3224 874.775,67.1649 "
       id="polygon3804" />
  </g>
  <g
     id="g3806">
    <path
       style="fill: none; fill-opacity:0; stroke-width: 2; stroke: #000000"
       d="M 820.9,18.2 A 76.2898,76.2898 0 0 0 773.548,-62.8939"
       id="path3808" />
    <polygon
       style="fill: #000000"
       points="766.515,-65.3416 777.447,-67.686 773.778,-63.4687 774.95,-58.0028 "
       id="polygon3810" />
    <polygon
       style="fill: none; fill-opacity:0; stroke-width: 2; stroke: #000000"
       points="766.515,-65.3416 777.447,-67.686 773.778,-63.4687 774.95,-58.0028 "
       id="polygon3812" />
  </g>
  <text
     font-size="12.8"
     style="fill: #000000;text-anchor:start;font-family:sans-serif;font-style:normal;font-weight:normal"
     x="545"
     y="-25"
     id="text3814">
    <tspan
       x="545"
       y="-25"
       id="tspan3816" />
  </text>
  <text
     font-size="12.8"
     style="font-size:12.80000019px;font-style:normal;font-weight:normal;text-anchor:start;fill:#000000;font-family:sans-serif"
     x="662.19635"
     y="-115.65567"
     id="text3818">
    <tspan
       x="662.19635"
       y="-115.65567"
       id="tspan3820">ready</tspan>
  </text>
  <text
     font-size="12.8"
     style="font-size:12.80000019px;font-style:normal;font-weight:normal;text-anchor:start;fill:#000000;font-family:sans-serif"
     x="541"
     y="-46.229553"
     id="text3822">
    <tspan
       x="541"
       y="-46.229553"
       id="tspan3824">read available</tspan>
  </text>
  <text
     font-size="12.8"
     style="font-size:12.80000019px;font-style:normal;font-weight:normal;text-anchor:start;fill:#000000;font-family:sans-serif"
     x="441.19656"
     y="6.5"
     id="text3826">
    <tspan
       x="441.19656"
       y="6.5"
       id="tspan3828">nothing read</tspan>
  </text>
  <text
     font-size="12.8"
     style="font-size:12.80000019px;font-style:normal;font-weight:normal;text-anchor:start;fill:#000000;font-family:sans-serif"
     x="510.65564"
     y="121"
     id="text3830">
    <tspan
       x="510.65564"
       y="121"
       id="tspan3832">data read</tspan>
  </text>
  <text
     font-size="12.8"
     style="fill: #000000;text-anchor:start;font-family:sans-serif;font-style:normal;font-weight:normal"
     x="688"
     y="179"
     id="text3834">
    <tspan
       x="688"
       y="179"
       id="tspan3836">done execute</tspan>
  </text>
  <text
     font-size="12.8"
     style="fill: #000000;text-anchor:start;font-family:sans-serif;font-style:normal;font-weight:normal"
     x="881"
     y="109"
     id="text3838">
    <tspan
       x="881"
       y="109"
       id="tspan3840">write available</tspan>
  </text>
  <text
     font-size="12.8"
     style="font-size:12.80000019px;font-style:normal;font-weight:normal;text-anchor:start;fill:#000000;font-family:sans-serif"
     x="802.19635"
     y="-49.770447"
     id="text3842">
    <tspan
       x="802.19635"
       y="-49.770447"
       id="tspan3844">done write</tspan>
  </text>
  <text
     font-size="12.7998"
     style="fill: #000000;text-anchor:start;font-family:sans-serif;font-style:normal;font-weight:normal"
     x="672"
     y="-7.5"
     id="text3846">
    <tspan
       x="672"
       y="-7.5"
       id="tspan3848">Worker Queue</tspan>
  </text>
</svg>
