<?xml version="1.0" encoding="UTF-8" standalone="no"?>
<svg
   xmlns:dc="http://purl.org/dc/elements/1.1/"
   xmlns:cc="http://creativecommons.org/ns#"
   xmlns:rdf="http://www.w3.org/1999/02/22-rdf-syntax-ns#"
   xmlns:svg="http://www.w3.org/2000/svg"
   xmlns="http://www.w3.org/2000/svg"
   xmlns:sodipodi="http://sodipodi.sourceforge.net/DTD/sodipodi-0.dtd"
   xmlns:inkscape="http://www.inkscape.org/namespaces/inkscape"
   width="37cm"
   height="17cm"
   viewBox="192 -173 721 333"
   id="svg3333"
   version="1.1"
   inkscape:version="0.48.4 r9939"
   sodipodi:docname="state4.svg">
  <metadata
     id="metadata3529">
    <rdf:RDF>
      <cc:Work
         rdf:about="">
        <dc:format>image/svg+xml</dc:format>
        <dc:type
           rdf:resource="http://purl.org/dc/dcmitype/StillImage" />
      </cc:Work>
    </rdf:RDF>
  </metadata>
  <defs
     id="defs3527" />
  <sodipodi:namedview
     pagecolor="#ffffff"
     bordercolor="#666666"
     borderopacity="1"
     objecttolerance="10"
     gridtolerance="10"
     guidetolerance="10"
     inkscape:pageopacity="0"
     inkscape:pageshadow="2"
     inkscape:window-width="1855"
     inkscape:window-height="1056"
     id="namedview3525"
     showgrid="false"
     inkscape:zoom="0.89090687"
     inkscape:cx="702.2724"
     inkscape:cy="252.76348"
     inkscape:window-x="65"
     inkscape:window-y="24"
     inkscape:window-maximized="1"
     inkscape:current-layer="svg3333" />
  <text
     font-size="12.8"
     style="font-size:12.80000019px;font-style:normal;font-weight:normal;text-align:start;text-anchor:start;fill:#000000;font-family:sans-serif"
     x="713.44525"
     y="-36.23605"
     id="text3487">
    <tspan
       x="713.44525"
       y="-36.23605"
       id="tspan3489"
       style="text-align:start;text-anchor:start">done execute</tspan>
  </text>
  <g
     id="g3335">
    <rect
       style="fill: #c4c4c4"
       x="329"
       y="-23.5"
       width="464"
       height="105"
       id="rect3337" />
    <rect
       style="fill: none; fill-opacity:0; stroke-width: 2; stroke: #000000"
       x="329"
       y="-23.5"
       width="464"
       height="105"
       id="rect3339" />
  </g>
  <g
     id="g3341">
    <rect
       style="fill: #ffffff"
       x="262"
       y="-171"
       width="98"
       height="36"
       rx="10"
       ry="10"
       id="rect3343" />
    <rect
       style="fill: none; fill-opacity:0; stroke-width: 2; stroke: #000000"
       x="262"
       y="-171"
       width="98"
       height="36"
       rx="10"
       ry="10"
       id="rect3345" />
    <text
       font-size="12.8"
       style="fill: #000000;text-anchor:middle;font-family:sans-serif;font-style:normal;font-weight:normal"
       x="311"
       y="-149.1"
       id="text3347">
      <tspan
         x="311"
         y="-149.1"
         id="tspan3349">Initialization</tspan>
    </text>
  </g>
  <g
     id="g3351"
     transform="matrix(1.217628,0,0,1,-75.473393,0)">
    <rect
       style="fill:#ffffff"
       x="346.79999"
       y="-97.900002"
       width="84.550003"
       height="36"
       rx="10"
       ry="10"
       id="rect3353" />
    <rect
       style="fill:none;stroke:#000000;stroke-width:2"
       x="346.79999"
       y="-97.900002"
       width="84.550003"
       height="36"
       rx="10"
       ry="10"
       id="rect3355" />
    <text
       font-size="12.8"
       style="font-size:12.80000019px;font-style:normal;font-weight:normal;text-anchor:middle;fill:#000000;font-family:sans-serif"
       x="389.07501"
       y="-76"
       id="text3357">
      <tspan
         x="389.07501"
         y="-76"
         id="tspan3359">Read Wait</tspan>
    </text>
  </g>
  <g
     id="g3361"
     transform="matrix(1.2066705,0,0,1,-71.857865,0)">
    <rect
       style="fill:#ffffff"
       x="341.79999"
       y="30.1"
       width="101.05"
       height="36"
       rx="10"
       ry="10"
       id="rect3363" />
    <rect
       style="fill:none;stroke:#000000;stroke-width:2"
       x="341.79999"
       y="30.1"
       width="101.05"
       height="36"
       rx="10"
       ry="10"
       id="rect3365" />
    <text
       font-size="12.8"
       style="font-size:12.80000019px;font-style:normal;font-weight:normal;text-anchor:middle;fill:#000000;font-family:sans-serif"
       x="392.32501"
       y="52"
       id="text3367">
      <tspan
         x="392.32501"
         y="52"
         id="tspan3369">Read Critical</tspan>
    </text>
  </g>
  <g
     id="g3371"
     transform="matrix(1.1127156,0,0,1,-84.093807,0)">
    <rect
       style="fill:#ffffff"
       x="658.79999"
       y="32.099998"
       width="120.05"
       height="36"
       rx="10"
       ry="10"
       id="rect3373" />
    <rect
       style="fill:none;stroke:#000000;stroke-width:2"
       x="658.79999"
       y="32.099998"
       width="120.05"
       height="36"
       rx="10"
       ry="10"
       id="rect3375" />
    <text
       font-size="12.8"
       style="font-size:12.80000019px;font-style:normal;font-weight:normal;text-anchor:middle;fill:#000000;font-family:sans-serif"
       x="718.82501"
       y="54"
       id="text3377">
      <tspan
         x="718.82501"
         y="54"
         id="tspan3379">Execute Critical</tspan>
    </text>
  </g>
  <g
     id="g3381"
     transform="matrix(1.3355649,0,0,1,-186.70409,0)">
    <rect
       style="fill:#ffffff"
       x="510.60001"
       y="-96.800003"
       width="102.6"
       height="36"
       rx="10"
       ry="10"
       id="rect3383" />
    <rect
       style="fill:none;stroke:#000000;stroke-width:2"
       x="510.60001"
       y="-96.800003"
       width="102.6"
       height="36"
       rx="10"
       ry="10"
       id="rect3385" />
    <text
       font-size="12.8"
       style="font-size:12.80000019px;font-style:normal;font-weight:normal;text-anchor:middle;fill:#000000;font-family:sans-serif"
       x="561.90002"
       y="-74.900002"
       id="text3387">
      <tspan
         x="561.90002"
         y="-74.900002"
         id="tspan3389">Write Critical</tspan>
    </text>
  </g>
  <g
     id="g3391"
     transform="matrix(1.1923787,0,0,1,-146.76575,0)">
    <rect
       style="fill:#ffffff"
       x="676.79999"
       y="-96.900002"
       width="86.099998"
       height="36"
       rx="10"
       ry="10"
       id="rect3393" />
    <rect
       style="fill:none;stroke:#000000;stroke-width:2"
       x="676.79999"
       y="-96.900002"
       width="86.099998"
       height="36"
       rx="10"
       ry="10"
       id="rect3395" />
    <text
       font-size="12.8"
       style="font-size:12.80000019px;font-style:normal;font-weight:normal;text-anchor:middle;fill:#000000;font-family:sans-serif"
       x="719.84998"
       y="-75"
       id="text3397">
      <tspan
         x="719.84998"
         y="-75"
         id="tspan3399">Write Wait</tspan>
    </text>
  </g>
  <g
     id="g3401">
    <rect
       style="fill: #ffffff"
       x="351.8"
       y="123.1"
       width="80"
       height="36"
       rx="10"
       ry="10"
       id="rect3403" />
    <rect
       style="fill: none; fill-opacity:0; stroke-width: 2; stroke: #000000"
       x="351.8"
       y="123.1"
       width="80"
       height="36"
       rx="10"
       ry="10"
       id="rect3405" />
    <text
       font-size="12.8"
       style="fill: #000000;text-anchor:middle;font-family:sans-serif;font-style:normal;font-weight:normal"
       x="391.8"
       y="145"
       id="text3407">
      <tspan
         x="391.8"
         y="145"
         id="tspan3409">Exit</tspan>
    </text>
  </g>
  <g
     id="g3411">
    <path
       style="fill: none; fill-opacity:0; stroke-width: 2; stroke: #000000"
       d="M 389.523,-107.507 A 53.4434,53.4434 0 0 0 360,-153"
       id="path3413" />
    <polygon
       style="fill: #000000"
       points="389.38,-100.115 385.789,-110.703 390.402,-107.545 395.696,-109.34 "
       id="polygon3415" />
    <polygon
       style="fill: none; fill-opacity:0; stroke-width: 2; stroke: #000000"
       points="389.38,-100.115 385.789,-110.703 390.402,-107.545 395.696,-109.34 "
       id="polygon3417" />
  </g>
  <g
     id="g3419">
    <path
       style="fill: none; fill-opacity:0; stroke-width: 2; stroke: #000000"
       d="M 398.165,116.04 A 37.9352,37.9352 0 0 0 392.326,66.1"
       id="path3421" />
    <polygon
       style="fill: #000000"
       points="393.494,121.64 397.802,111.323 399.174,116.742 404.332,118.897 "
       id="polygon3423" />
    <polygon
       style="fill: none; fill-opacity:0; stroke-width: 2; stroke: #000000"
       points="393.494,121.64 397.802,111.323 399.174,116.742 404.332,118.897 "
       id="polygon3425" />
  </g>
  <g
     id="g3427">
    <path
       style="fill: none; fill-opacity:0; stroke-width: 2; stroke: #000000"
       d="M 346.8,-79.9 A 55.0597,55.0597 0 0 0 332.248,28.9218"
       id="path3429" />
    <polygon
       style="fill: #000000"
       points="339.565,30.0213 329.395,34.6661 332.07,29.7572 329.748,24.6723 "
       id="polygon3431" />
    <polygon
       style="fill: none; fill-opacity:0; stroke-width: 2; stroke: #000000"
       points="339.565,30.0213 329.395,34.6661 332.07,29.7572 329.748,24.6723 "
       id="polygon3433" />
  </g>
  <g
     id="g3435">
    <path
       style="fill: none; fill-opacity:0; stroke-width: 2; stroke: #000000"
       d="M 500.506,24.4028 A 45.1508,45.1508 0 0 0 442.85,30.1"
       id="path3437" />
    <polygon
       style="fill: #000000"
       points="506.259,28.9797 495.744,25.1795 501.09,23.5452 502.99,18.2879 "
       id="polygon3439" />
    <polygon
       style="fill: none; fill-opacity:0; stroke-width: 2; stroke: #000000"
       points="506.259,28.9797 495.744,25.1795 501.09,23.5452 502.99,18.2879 "
       id="polygon3441" />
  </g>
  <g
     id="g3443">
    <path
       style="fill: none; fill-opacity:0; stroke-width: 2; stroke: #000000"
       d="M 778.85,32.1 A 56.8135,56.8135 0 0 0 772.479,-77.8993"
       id="path3445" />
    <polygon
       style="fill: #000000"
       points="765.136,-78.857 775.23,-83.6637 772.634,-78.7127 775.038,-73.6656 "
       id="polygon3447" />
    <polygon
       style="fill: none; fill-opacity:0; stroke-width: 2; stroke: #000000"
       points="765.136,-78.857 775.23,-83.6637 772.634,-78.7127 775.038,-73.6656 "
       id="polygon3449" />
  </g>
  <g
     id="g3451">
    <path
       style="fill: none; fill-opacity:0; stroke-width: 2; stroke: #000000"
       d="M 676.8,-96.9 A 46.3118,46.3118 0 0 0 620.798,-102.634"
       id="path3453" />
    <polygon
       style="fill: #000000"
       points="614.823,-98.338 618.643,-108.845 620.267,-103.496 625.521,-101.586 "
       id="polygon3455" />
    <polygon
       style="fill: none; fill-opacity:0; stroke-width: 2; stroke: #000000"
       points="614.823,-98.338 618.643,-108.845 620.267,-103.496 625.521,-101.586 "
       id="polygon3457" />
  </g>
  <g
     id="g3459">
    <path
       style="fill: none; fill-opacity:0; stroke-width: 2; stroke: #000000"
       d="M 510.6,-96.8 A 67.9379,67.9379 0 0 0 439.648,-102.849"
       id="path3461" />
    <polygon
       style="fill: #000000"
       points="433.184,-99.179 438.527,-109 439.336,-103.469 444.247,-100.797 "
       id="polygon3463" />
    <polygon
       style="fill: none; fill-opacity:0; stroke-width: 2; stroke: #000000"
       points="433.184,-99.179 438.527,-109 439.336,-103.469 444.247,-100.797 "
       id="polygon3465" />
  </g>
  <text
     font-size="12.8"
     style="fill: #000000;text-anchor:start;font-family:sans-serif;font-style:normal;font-weight:normal"
     x="545"
     y="-25"
     id="text3467">
    <tspan
       x="545"
       y="-25"
       id="tspan3469" />
  </text>
  <text
     font-size="12.8"
     style="fill: #000000;text-anchor:start;font-family:sans-serif;font-style:normal;font-weight:normal"
     x="388"
     y="-142"
     id="text3471">
    <tspan
       x="388"
       y="-142"
       id="tspan3473">ready</tspan>
  </text>
  <text
     font-size="12.8"
     style="font-size:12.80000019px;font-style:normal;font-weight:normal;text-align:start;text-anchor:start;fill:#000000;font-family:sans-serif"
     x="295.38541"
     y="-36.512943"
     id="text3475">
    <tspan
       x="295.38541"
       y="-36.512943"
       id="tspan3477"
       style="text-align:start;text-anchor:start">read available</tspan>
  </text>
  <text
     font-size="12.8"
     style="fill: #000000;text-anchor:start;font-family:sans-serif;font-style:normal;font-weight:normal"
     x="419"
     y="104"
     id="text3479">
    <tspan
       x="419"
       y="104"
       id="tspan3481">nothing read</tspan>
  </text>
  <text
     font-size="12.8"
     style="font-size:12.80000019px;font-style:normal;font-weight:normal;text-anchor:start;fill:#000000;font-family:sans-serif"
     x="446.57739"
     y="13"
     id="text3483">
    <tspan
       x="446.57739"
       y="13"
       id="tspan3485">data read</tspan>
  </text>
  <text
     font-size="12.8"
     style="fill: #000000;text-anchor:start;font-family:sans-serif;font-style:normal;font-weight:normal"
     x="601"
     y="-117"
     id="text3491">
    <tspan
       x="601"
       y="-117"
       id="tspan3493">write available</tspan>
  </text>
  <text
     font-size="12.8"
     style="fill: #000000;text-anchor:start;font-family:sans-serif;font-style:normal;font-weight:normal"
     x="441"
     y="-117"
     id="text3495">
    <tspan
       x="441"
       y="-117"
       id="tspan3497">done write</tspan>
  </text>
  <g
     id="g3499"
     transform="matrix(1.2313909,0,0,1,-129.16019,0)">
    <rect
       style="fill:#ffffff"
       x="507.79999"
       y="30.6"
       width="103.55"
       height="36"
       rx="10"
       ry="10"
       id="rect3501" />
    <rect
       style="fill:none;stroke:#000000;stroke-width:2"
       x="507.79999"
       y="30.6"
       width="103.55"
       height="36"
       rx="10"
       ry="10"
       id="rect3503" />
    <text
       font-size="12.8"
       style="font-size:12.80000019px;font-style:normal;font-weight:normal;text-anchor:middle;fill:#000000;font-family:sans-serif"
       x="559.57501"
       y="52.5"
       id="text3505">
      <tspan
         x="559.57501"
         y="52.5"
         id="tspan3507">Execute Wait</tspan>
    </text>
  </g>
  <g
     id="g3509">
    <path
       style="fill: none; fill-opacity:0; stroke-width: 2; stroke: #000000"
       d="M 652.283,25.3712 A 29.6462,29.6462 0 0 0 611.35,30.6"
       id="path3511" />
    <polygon
       style="fill: #000000"
       points="657.518,30.2682 647.687,24.9437 653.216,24.1242 655.879,19.2087 "
       id="polygon3513" />
    <polygon
       style="fill: none; fill-opacity:0; stroke-width: 2; stroke: #000000"
       points="657.518,30.2682 647.687,24.9437 653.216,24.1242 655.879,19.2087 "
       id="polygon3515" />
  </g>
  <text
     font-size="12.8"
     style="fill: #000000;text-anchor:start;font-family:sans-serif;font-style:normal;font-weight:normal"
     x="513"
     y="-5.5"
     id="text3517">
    <tspan
       x="513"
       y="-5.5"
       id="tspan3519">Worker Queue</tspan>
  </text>
  <text
     font-size="12.8"
     style="fill: #000000;text-anchor:start;font-family:sans-serif;font-style:normal;font-weight:normal"
     x="583.8"
     y="14.5"
     id="text3521">
    <tspan
       x="583.8"
       y="14.5"
       id="tspan3523">execute available</tspan>
  </text>
</svg>
