<?xml version="1.0" encoding="UTF-8" standalone="no"?>
<svg
   xmlns:dc="http://purl.org/dc/elements/1.1/"
   xmlns:cc="http://creativecommons.org/ns#"
   xmlns:rdf="http://www.w3.org/1999/02/22-rdf-syntax-ns#"
   xmlns:svg="http://www.w3.org/2000/svg"
   xmlns="http://www.w3.org/2000/svg"
   xmlns:sodipodi="http://sodipodi.sourceforge.net/DTD/sodipodi-0.dtd"
   xmlns:inkscape="http://www.inkscape.org/namespaces/inkscape"
   width="31cm"
   height="15cm"
   viewBox="304 -169 607 300"
   id="svg3189"
   version="1.1"
   inkscape:version="0.48.4 r9939"
   sodipodi:docname="state1.svg">
  <metadata
     id="metadata3353">
    <rdf:RDF>
      <cc:Work
         rdf:about="">
        <dc:format>image/svg+xml</dc:format>
        <dc:type
           rdf:resource="http://purl.org/dc/dcmitype/StillImage" />
        <dc:title />
      </cc:Work>
    </rdf:RDF>
  </metadata>
  <defs
     id="defs3351" />
  <sodipodi:namedview
     pagecolor="#ffffff"
     bordercolor="#666666"
     borderopacity="1"
     objecttolerance="10"
     gridtolerance="10"
     guidetolerance="10"
     inkscape:pageopacity="0"
     inkscape:pageshadow="2"
     inkscape:window-width="1855"
     inkscape:window-height="1056"
     id="namedview3349"
     showgrid="false"
     inkscape:zoom="1.0879307"
     inkscape:cx="374.21928"
     inkscape:cy="348.09474"
     inkscape:window-x="65"
     inkscape:window-y="24"
     inkscape:window-maximized="1"
     inkscape:current-layer="g3221" />
  <g
     id="g3191"
     transform="matrix(1.0943412,0,0,1,-28.774081,0)">
    <rect
       style="fill:#ffffff"
       x="305"
       y="-114"
       width="98"
       height="36"
       rx="10"
       ry="10"
       id="rect3193" />
    <rect
       style="fill:none;stroke:#000000;stroke-width:2"
       x="305"
       y="-114"
       width="98"
       height="36"
       rx="10"
       ry="10"
       id="rect3195" />
    <text
       font-size="12.7998"
       style="font-size:12.79979992px;font-style:normal;font-weight:normal;text-anchor:middle;fill:#000000;font-family:sans-serif"
       x="354"
       y="-90.971107"
       id="text3197">
      <tspan
         x="354"
         y="-90.971107"
         id="tspan3199">Initialization</tspan>
    </text>
  </g>
  <g
     id="g3201"
     transform="matrix(1.090981,0,0,1,-44.744441,0)">
    <rect
       style="fill:#ffffff"
       x="491.79999"
       y="-113.9"
       width="84.550003"
       height="36"
       rx="10"
       ry="10"
       id="rect3203" />
    <rect
       style="fill:none;stroke:#000000;stroke-width:2"
       x="491.79999"
       y="-113.9"
       width="84.550003"
       height="36"
       rx="10"
       ry="10"
       id="rect3205" />
    <text
       font-size="12.7998"
       style="font-size:12.79979992px;font-style:normal;font-weight:normal;text-anchor:middle;fill:#000000;font-family:sans-serif"
       x="534.07501"
       y="-90.871109"
       id="text3207">
      <tspan
         x="534.07501"
         y="-90.871109"
         id="tspan3209">Read Wait</tspan>
    </text>
  </g>
  <g
     id="g3211"
     transform="matrix(1.1729069,0,0,1,-91.176435,0)">
    <rect
       style="fill:#ffffff"
       x="476.79999"
       y="47.099998"
       width="101.05"
       height="36"
       rx="10"
       ry="10"
       id="rect3213" />
    <rect
       style="fill:none;stroke:#000000;stroke-width:2"
       x="476.79999"
       y="47.099998"
       width="101.05"
       height="36"
       rx="10"
       ry="10"
       id="rect3215" />
    <text
       font-size="12.7998"
       style="font-size:12.79979992px;font-style:normal;font-weight:normal;text-anchor:middle;fill:#000000;font-family:sans-serif"
       x="527.32501"
       y="70.128891"
       id="text3217">
      <tspan
         x="527.32501"
         y="70.128891"
         id="tspan3219">Read Critical</tspan>
    </text>
  </g>
  <g
     id="g3221">
    <rect
       style="fill: #ffffff"
       x="688.8"
       y="94.1"
       width="80"
       height="36"
       rx="10"
       ry="10"
       id="rect3223" />
    <rect
       style="fill: none; fill-opacity:0; stroke-width: 2; stroke: #000000"
       x="688.8"
       y="94.1"
       width="80"
       height="36"
       rx="10"
       ry="10"
       id="rect3225" />
    <text
       font-size="12.7998"
       style="font-size:12.79979992px;font-style:normal;font-weight:normal;text-anchor:middle;fill:#000000;font-family:sans-serif"
       x="728.79999"
       y="117.12889"
       id="text3227">
      <tspan
         x="728.79999"
         y="117.12889"
         id="tspan3229">Execute</tspan>
    </text>
  </g>
  <g
     id="g3231"
     transform="matrix(1.0400692,0,0,1,-31.221856,0)">
    <rect
       style="fill:#ffffff"
       x="676.59998"
       y="-167.8"
       width="102.6"
       height="36"
       rx="10"
       ry="10"
       id="rect3233" />
    <rect
       style="fill:none;stroke:#000000;stroke-width:2"
       x="676.59998"
       y="-167.8"
       width="102.6"
       height="36"
       rx="10"
       ry="10"
       id="rect3235" />
    <text
       font-size="12.7998"
       style="font-size:12.79979992px;font-style:normal;font-weight:normal;text-anchor:middle;fill:#000000;font-family:sans-serif"
       x="727.90002"
       y="-144.7711"
       id="text3237">
      <tspan
         x="727.90002"
         y="-144.7711"
         id="tspan3239">Write Critical</tspan>
    </text>
  </g>
  <g
     id="g3241">
    <rect
       style="fill: #ffffff"
       x="823.8"
       y="-35.9"
       width="86.1"
       height="36"
       rx="10"
       ry="10"
       id="rect3243" />
    <rect
       style="fill: none; fill-opacity:0; stroke-width: 2; stroke: #000000"
       x="823.8"
       y="-35.9"
       width="86.1"
       height="36"
       rx="10"
       ry="10"
       id="rect3245" />
    <text
       font-size="12.7998"
       style="font-size:12.79979992px;font-style:normal;font-weight:normal;text-anchor:middle;fill:#000000;font-family:sans-serif"
       x="866.84998"
       y="-12.871111"
       id="text3247">
      <tspan
         x="866.84998"
         y="-12.871111"
         id="tspan3249">Write Wait</tspan>
    </text>
  </g>
  <g
     id="g3251">
    <rect
       style="fill: #ffffff"
       x="308.8"
       y="47.1"
       width="80"
       height="36"
       rx="10"
       ry="10"
       id="rect3253" />
    <rect
       style="fill: none; fill-opacity:0; stroke-width: 2; stroke: #000000"
       x="308.8"
       y="47.1"
       width="80"
       height="36"
       rx="10"
       ry="10"
       id="rect3255" />
    <text
       font-size="12.7998"
       style="font-size:12.79979992px;font-style:normal;font-weight:normal;text-anchor:middle;fill:#000000;font-family:sans-serif"
       x="348.79999"
       y="70.128891"
       id="text3257">
      <tspan
         x="348.79999"
         y="70.128891"
         id="tspan3259">Exit</tspan>
    </text>
  </g>
  <g
     id="g3261">
    <path
       style="fill: none; fill-opacity:0; stroke-width: 2; stroke: #000000"
       d="M 482.854,-117.661 A 103.41,103.41 0 0 0 403,-114"
       id="path3263" />
    <polygon
       style="fill: #000000"
       points="489.782,-114.862 478.603,-114.653 483.012,-118.09 482.907,-123.679 "
       id="polygon3265" />
    <polygon
       style="fill: none; fill-opacity:0; stroke-width: 2; stroke: #000000"
       points="489.782,-114.862 478.603,-114.653 483.012,-118.09 482.907,-123.679 "
       id="polygon3267" />
  </g>
  <g
     id="g3269">
    <path
       style="fill: none; fill-opacity:0; stroke-width: 2; stroke: #000000"
       d="M 397.248,87.8355 A 81.4888,81.4888 0 0 0 476.8,83.1"
       id="path3271" />
    <polygon
       style="fill: #000000"
       points="390.682,84.3074 401.799,85.4984 396.995,88.357 396.399,93.9154 "
       id="polygon3273" />
    <polygon
       style="fill: none; fill-opacity:0; stroke-width: 2; stroke: #000000"
       points="390.682,84.3074 401.799,85.4984 396.995,88.357 396.399,93.9154 "
       id="polygon3275" />
  </g>
  <g
     id="g3277">
    <path
       style="fill: none; fill-opacity:0; stroke-width: 2; stroke: #000000"
       d="M 534.075,-77.9 A 197.036,197.036 0 0 0 524.969,37.6624"
       id="path3279" />
    <polygon
       style="fill: #000000"
       points="526.73,44.9445 519.25,36.6354 524.735,37.7149 528.889,33.9746 "
       id="polygon3281" />
    <polygon
       style="fill: none; fill-opacity:0; stroke-width: 2; stroke: #000000"
       points="526.73,44.9445 519.25,36.6354 524.735,37.7149 528.889,33.9746 "
       id="polygon3283" />
  </g>
  <g
     id="g3285">
    <path
       style="fill: none; fill-opacity:0; stroke-width: 2; stroke: #000000"
       d="M 577.85,83.1 A 92.1931,92.1931 0 0 0 679.736,115.542"
       id="path3287" />
    <polygon
       style="fill: #000000"
       points="686.754,113.003 679.624,121.614 679.893,116.03 675.587,112.465 "
       id="polygon3289" />
    <polygon
       style="fill: none; fill-opacity:0; stroke-width: 2; stroke: #000000"
       points="686.754,113.003 679.624,121.614 679.893,116.03 675.587,112.465 "
       id="polygon3291" />
  </g>
  <g
     id="g3293">
    <path
       style="fill: none; fill-opacity:0; stroke-width: 2; stroke: #000000"
       d="M 768.8,112.1 A 148.486,148.486 0 0 0 864.664,9.57151"
       id="path3295" />
    <polygon
       style="fill: #000000"
       points="866.419,2.2941 869.397,13.0706 864.973,9.65334 859.584,11.1422 "
       id="polygon3297" />
    <polygon
       style="fill: none; fill-opacity:0; stroke-width: 2; stroke: #000000"
       points="866.419,2.2941 869.397,13.0706 864.973,9.65334 859.584,11.1422 "
       id="polygon3299" />
  </g>
  <g
     id="g3301">
    <path
       style="fill: none; fill-opacity:0; stroke-width: 2; stroke: #000000"
       d="M 866.85,-35.9 A 139.098,139.098 0 0 0 788.125,-145.953"
       id="path3303" />
    <polygon
       style="fill: #000000"
       points="781.283,-148.987 792.417,-150.01 788.27,-146.261 788.782,-140.694 "
       id="polygon3305" />
    <polygon
       style="fill: none; fill-opacity:0; stroke-width: 2; stroke: #000000"
       points="781.283,-148.987 792.417,-150.01 788.27,-146.261 788.782,-140.694 "
       id="polygon3307" />
  </g>
  <g
     id="g3309"
     transform="matrix(0.96905776,0,0,1,17.853515,0)">
    <path
       style="fill:none;stroke:#000000;stroke-width:2"
       d="m 676.6,-149.8 a 136.669,136.669 0 0 0 -92.871,29.577"
       id="path3311"
       inkscape:connector-curvature="0" />
    <polygon
       style="fill:#000000"
       points="581.966,-125.866 583.513,-120.494 588.739,-118.508 577.995,-115.414 "
       id="polygon3313" />
    <polygon
       style="fill:none;stroke:#000000;stroke-width:2"
       points="581.966,-125.866 583.513,-120.494 588.739,-118.508 577.995,-115.414 "
       id="polygon3315" />
  </g>
  <text
     font-size="12.7998"
     style="fill: #000000;text-anchor:start;font-family:sans-serif;font-style:normal;font-weight:normal"
     x="545"
     y="-25"
     id="text3317">
    <tspan
       x="545"
       y="-25"
       id="tspan3319" />
  </text>
  <text
     font-size="12.7998"
     style="fill: #000000;text-anchor:start;font-family:sans-serif;font-style:normal;font-weight:normal"
     x="425"
     y="-131"
     id="text3321">
    <tspan
       x="425"
       y="-131"
       id="tspan3323">ready</tspan>
  </text>
  <text
     font-size="12.7998"
     style="fill: #000000;text-anchor:start;font-family:sans-serif;font-style:normal;font-weight:normal"
     x="531"
     y="-21"
     id="text3325">
    <tspan
       x="531"
       y="-21"
       id="tspan3327">read available</tspan>
  </text>
  <text
     font-size="12.7998"
     style="fill: #000000;text-anchor:start;font-family:sans-serif;font-style:normal;font-weight:normal"
     x="395"
     y="112"
     id="text3329">
    <tspan
       x="395"
       y="112"
       id="tspan3331">nothing read</tspan>
  </text>
  <text
     font-size="12.7998"
     style="fill: #000000;text-anchor:start;font-family:sans-serif;font-style:normal;font-weight:normal"
     x="603"
     y="99"
     id="text3333">
    <tspan
       x="603"
       y="99"
       id="tspan3335">data read</tspan>
  </text>
  <text
     font-size="12.7998"
     style="font-size:12.79979992px;font-style:normal;font-weight:normal;text-anchor:start;fill:#000000;font-family:sans-serif"
     x="736.45312"
     y="59"
     id="text3337">
    <tspan
       x="736.45312"
       y="59"
       id="tspan3339">done execute</tspan>
  </text>
  <text
     font-size="12.7998"
     style="font-size:12.79979992px;font-style:normal;font-weight:normal;text-anchor:start;fill:#000000;font-family:sans-serif"
     x="730.9375"
     y="-82"
     id="text3341">
    <tspan
       x="730.9375"
       y="-82"
       id="tspan3343">write available</tspan>
  </text>
  <text
     font-size="12.7998"
     style="fill: #000000;text-anchor:start;font-family:sans-serif;font-style:normal;font-weight:normal"
     x="602"
     y="-118"
     id="text3345">
    <tspan
       x="602"
       y="-118"
       id="tspan3347">done write</tspan>
  </text>
</svg>
